<svg xmlns="http://www.w3.org/2000/svg">
  <symbol id="error" viewBox="0 0 24 24">
    <path
      d="m9 0h6v1.5h3v1.5h1.5v1.5h1.5v1.5h1.5v3h1.5v6h-1.5v3h-1.5v1.5h-1.5v1.5h-1.5v1.5h-3v1.5h-6v-1.5h-3v-1.5h-1.5v-1.5h-1.5v-1.5h-1.5v-3h-1.5v-6h1.5v-3h1.5v-1.5h1.5v-1.5h1.5v-1.5h3zm-3 6v3h1.5v1.5h1.5v3h-1.5v1.5h-1.5v3h3v-1.5h1.5v-1.5h3v1.5h1.5v1.5h3v-3h-1.5v-1.5h-1.5v-3h1.5v-1.5h1.5v-3h-3v1.5h-1.5v1.5h-3v-1.5h-1.5v-1.5z"
      fill="currentColor" />
  </symbol>
  <symbol id="github" viewBox="0 0 24 24">
    <path
      d="m8 0h8v0.85547h1.7773v0.85938h0.89062v0.85547h0.88672v0.85938h0.89062v0.85547h0.88672v0.85938h0.89062v1.7109h0.88672v1.7148h0.89062v7.7148h-0.89062v1.7148h-0.88672v0.85547h-0.89062v0.85938h-0.88672v0.85547h-0.89062v0.85938h-0.88672v0.85547h-0.89062v0.85938h-0.88672v0.85547h-1.7812v-5.1445h-0.88672v-0.85547h-0.89062v-0.85547h3.5586v-0.85938h0.88672v-0.85547h0.89062v-0.85938h0.88672v-5.1406h-0.88672v-0.85938h-0.89062v-0.85547h0.89062v-2.5703h-2.668v0.85547h-0.89062v0.85547h-0.88672v-0.85547h-4.4453v0.85547h-0.88672v-0.85547h-0.89062v-0.85547h-2.668v2.5703h0.89062v0.85547h-0.89062v0.85938h-0.88672v5.1406h0.88672v0.85938h0.89062v0.85547h0.88672v0.85938h3.5586v0.85547h-0.89062v0.85547h-0.88672v0.85938h-1.7812v-0.85938h-0.88672v-0.85547h-0.89062v-0.85547h-1.7773v0.85547h0.89062v0.85547h0.88672v0.85938h0.89062v0.85547h3.5547v3.4297h-1.7773v-0.85547h-1.7773v-0.85938h-0.89062v-0.85547h-0.88672v-0.85938h-0.89062v-0.85547h-0.88672v-0.85938h-0.89062v-0.85547h-0.88672v-1.7148h-0.89062v-7.7148h0.89062v-1.7148h0.88672v-1.7109h0.89062v-0.85938h0.88672v-0.85547h0.89062v-0.85938h0.88672v-0.85547h0.89062v-0.85938h1.7773z"
      fill="currentColor" />
  </symbol>
  <symbol id="poke-ball" viewBox="0 0 24 24">
    <g>
      <path
        d="m7.9727 0h8.0547v1.9922h3.9883v1.9922h1.9922v3.9883h1.9922v7.9727h-1.9922v3.9844h-1.9922v1.9961h-3.9883v1.9922h-8.0547v-1.9922h-3.9883v-1.9961h-1.9922v-3.9844h-1.9922v-7.9727h1.9922v-3.9883h1.9922v-1.9922h3.9883z"
        fill="#b50400" />
      <path
        d="m7.9727 0h8.0547v1.9922h3.9883v1.9922h1.9922v3.9883h1.9922v7.9727h-1.9922v3.9844h-1.9922v1.9961h-3.9883v1.9922h-8.0547v-1.9922h7.9727v-1.9961h3.9844v-3.9844h-5.9766v-3.9883h1.9922v1.9961h3.9844v-1.9961h1.9961v-3.9844h-1.9961v-3.9883h-3.9844v-1.9922h-7.9727z" />
      <path d="m9.9648 11.957h3.9883v3.9883h5.9766v3.9844h-3.9844v1.9961h-11.961v-5.9805h5.9805z" fill="#a8a8a8" />
      <path
        d="m0 7.9727h1.9922v3.9844h1.9922v1.9961h3.9883v-1.9961h1.9922v3.9883h-5.9805v3.9844h-1.9922v-3.9844h-1.9922z" />
      <path d="m7.9727 3.9844h5.9805v1.9961h1.9922v3.9844h-7.9727v-1.9922h-1.9922v-1.9922h1.9922z" fill="#d60600" />
      <path
        d="m3.9844 5.9805h1.9961v1.9922h1.9922v1.9922h1.9922v1.9922h-1.9922v1.9961h-3.9883v-1.9961h-1.9922v-3.9844h1.9922z"
        fill="#d60600" />
      <path d="m3.9844 15.945h5.9805v1.9922h1.9922v1.9922h-7.9727z" fill="#fff" />
      <path d="m7.9727 3.9844h1.9922v1.9961h1.9922v1.9922h-1.9922v1.9922h-1.9922v-1.9922h-1.9922v-1.9922h1.9922z"
        fill="#fff" />
      <path d="m13.953 11.957h1.9922v1.9961h3.9844v1.9922h-5.9766z" />
      <path d="m9.9648 11.957h3.9883v3.9883h-3.9883z" fill="#a8a8a8" />
      <path d="m7.9727 11.957h1.9922v3.9883h-5.9805v-1.9922h3.9883z" />
      <path d="m1.9922 3.9844h5.9805v1.9961h-3.9883v1.9922h-1.9922z" fill="#d60600" />
      <path d="m3.9844 19.93h3.9883v1.9961h-3.9883z" />
      <path d="m9.9648 15.945h3.9883v1.9922h-3.9883z" />
      <path d="m1.9922 15.945h1.9922v3.9844h-1.9922z" />
      <path d="m9.9648 9.9648h3.9883v1.9922h-3.9883z" />
      <path d="m1.9922 3.9844h1.9922v3.9883h-1.9922z" />
      <path d="m3.9844 1.9922h3.9883v1.9922h-3.9883z" />
      <path d="m3.9844 17.938h1.9961v1.9922h-1.9961z" fill="#a8a8a8" />
      <path d="m19.93 13.953h1.9961v1.9922h-1.9961z" fill="#a8a8a8" />
      <path d="m1.9922 13.953h1.9922v1.9922h-1.9922z" fill="#fff" />
      <path d="m17.938 11.957h1.9922v1.9961h-1.9922z" fill="#960400" />
      <path d="m9.9648 11.957h1.9922v1.9961h-1.9922z" fill="#fff" />
      <path d="m7.9727 7.9727h1.9922v1.9922h-1.9922z" fill="#ff9894" />
      <path d="m1.9922 7.9727h1.9922v1.9922h-1.9922z" fill="#ba0500" />
      <path d="m9.9648 5.9805h1.9922v1.9922h-1.9922z" fill="#ff9894" />
      <path d="m5.9805 5.9805h1.9922v1.9922h-1.9922z" fill="#ff9894" />
      <path d="m17.938 3.9844h1.9922v1.9961h-1.9922z" fill="#960400" />
      <path d="m7.9727 3.9844h1.9922v1.9961h-1.9922z" fill="#ff9894" />
      <path d="m3.9844 3.9844h1.9961v1.9961h-1.9961z" fill="#ba0500" />
    </g>
  </symbol>
</svg>
